HIERARCHY
ROOT Hips
{
 OFFSET 0.000000 0.000000 0.000000
 CHANNELS 6 Xposition Yposition Zposition Yrotation Xrotation Zrotation
 JOINT Chest
 {
  OFFSET 0.000000 9.585900 0.002600
  CHANNELS 3 Yrotation Xrotation Zrotation
  JOINT Chest2
  {
   OFFSET 0.000000 9.601200 -0.005300
   CHANNELS 3 Yrotation Xrotation Zrotation
   JOINT Chest3
   {
    OFFSET 0.000000 9.561800 0.000000
    CHANNELS 3 Yrotation Xrotation Zrotation
    JOINT Chest4
    {
     OFFSET 0.000000 9.552100 0.000000
     CHANNELS 3 Yrotation Xrotation Zrotation
     JOINT Neck
     {
      OFFSET 0.000000 14.453000 0.000000
      CHANNELS 3 Yrotation Xrotation Zrotation
      JOINT Head
      {
       OFFSET 0.000000 8.936500 -0.011300
       CHANNELS 3 Yrotation Xrotation Zrotation
       End Site
       {
        OFFSET 0.000000 17.073600 -0.006000
       }
      }
     }
     JOINT RightCollar
     {
      OFFSET -2.921100 9.558500 0.000000
      CHANNELS 3 Yrotation Xrotation Zrotation
      JOINT RightShoulder
      {
       OFFSET -13.519700 0.000000 0.000000
       CHANNELS 3 Yrotation Xrotation Zrotation
       JOINT RightElbow
       {
        OFFSET 0.000000 -29.696600 0.000000
        CHANNELS 3 Yrotation Xrotation Zrotation
        JOINT RightWrist
        {
         OFFSET 0.000000 -24.004700 0.000000
         CHANNELS 3 Yrotation Xrotation Zrotation
         End Site
         {
          OFFSET 0.000000 -17.728500 0.000000
         }
        }
       }
      }
     }
     JOINT LeftCollar
     {
      OFFSET 2.921100 9.558500 0.000000
      CHANNELS 3 Yrotation Xrotation Zrotation
      JOINT LeftShoulder
      {
       OFFSET 13.519700 0.000000 0.000000
       CHANNELS 3 Yrotation Xrotation Zrotation
       JOINT LeftElbow
       {
        OFFSET 0.000000 -29.696600 0.000000
        CHANNELS 3 Yrotation Xrotation Zrotation
        JOINT LeftWrist
        {
         OFFSET 0.000000 -24.004700 0.000000
         CHANNELS 3 Yrotation Xrotation Zrotation
         End Site
         {
          OFFSET 0.000000 -17.728500 0.000000
         }
        }
       }
      }
     }
    }
   }
  }
 }
 JOINT RightHip
 {
  OFFSET -7.771700 -0.012900 -0.001300
  CHANNELS 3 Yrotation Xrotation Zrotation
  JOINT RightKnee
  {
   OFFSET 0.000000 -40.869800 0.001200
   CHANNELS 3 Yrotation Xrotation Zrotation
   JOINT RightAnkle
   {
    OFFSET 0.000000 -39.717900 0.002100
    CHANNELS 3 Yrotation Xrotation Zrotation
    JOINT RightToe
    {
     OFFSET 0.000000 -4.965400 11.033500
     CHANNELS 3 Yrotation Xrotation Zrotation
     End Site
     {
      OFFSET 0.000000 -1.423100 5.872300
     }
    }
   }
  }
 }
 JOINT LeftHip
 {
  OFFSET 7.771700 -0.012900 -0.001300
  CHANNELS 3 Yrotation Xrotation Zrotation
  JOINT LeftKnee
  {
   OFFSET 0.000000 -40.869800 0.001200
   CHANNELS 3 Yrotation Xrotation Zrotation
   JOINT LeftAnkle
   {
    OFFSET 0.000000 -39.717900 0.002100
    CHANNELS 3 Yrotation Xrotation Zrotation
    JOINT LeftToe
    {
     OFFSET 0.000000 -4.965400 11.033500
     CHANNELS 3 Yrotation Xrotation Zrotation
     End Site
     {
      OFFSET 0.000000 -1.423100 5.872300
     }
    }
   }
  }
 }
}
MOTION
Frames: 12
Frame Time: 0.008333
0.000000 85.388000 0.000000 0.000000 -5.767877 0.000000 0.000000 11.653817 0.000000 0.000000 -5.885947 0.000000 0.000000 -0.000000 0.000000 0.000000 -0.000000 0.000000 0.000000 12.528835 0.000000 0.000000 0.711642 0.000000 0.000000 -0.000000 0.000000 0.000000 0.000000 -90.000000 0.000000 -2.309062 0.000000 0.000000 2.309062 0.000000 0.000000 -0.000000 0.000000 0.000000 -0.000000 90.000000 0.000000 -2.309062 0.000000 0.000000 2.309062 0.000000 0.000000 8.520406 0.000000 0.000000 1.905762 0.000000 -0.000000 -4.658285 0.000000 0.000000 -0.000000 0.000000 0.000000 8.520406 0.000000 0.000000 1.905762 0.000000 -0.000000 -4.658285 0.000000 0.000000 -0.000000 0.000000
-128.322258 58.215295 105.514863 175.991657 -27.037037 -0.769980 2.643164 19.149194 3.333436 0.170505 2.290871 0.305794 0.318461 3.776195 0.511332 1.649971 16.540809 2.449689 -1.518334 10.761137 -1.778172 -2.164778 -15.825019 -2.745384 3.821158 -3.575719 -0.671230 16.584144 -18.856523 -20.157368 130.231579 -73.913611 -80.838932 16.430403 -16.240570 -46.692605 -7.125666 -3.498964 -4.430910 -2.532325 -14.651785 -3.307473 31.698776 -53.122837 -63.177103 6.447277 -4.637877 26.995848 3.176430 -47.916061 0.540550 -13.553577 68.018509 -17.884306 6.123262 21.235604 5.485717 -0.512652 -15.362449 2.178979 -4.835477 -45.640584 0.138099 24.423894 66.366677 22.528835 -16.649885 2.766819 -1.997538 -0.154346 0.030744 -0.078626
-128.318618 58.216281 105.517098 176.005562 -27.031563 -0.773342 2.614628 19.143266 3.324425 0.172051 2.290669 0.303416 0.322545 3.777858 0.513527 1.651905 16.541487 2.448849 -1.488865 10.772433 -1.781813 -2.134328 -15.820904 -2.757100 3.802170 -3.564797 -0.675582 16.555941 -18.852474 -20.132317 130.107033 -73.904612 -80.761089 16.450475 -16.291629 -46.664833 -7.142875 -3.510927 -4.439768 -2.531931 -14.647759 -3.299585 31.704275 -53.106075 -63.170088 6.460006 -4.628690 26.997989 3.145519 -47.917831 0.596073 -13.634465 67.997201 -18.017426 6.107278 21.240010 5.497843 -0.490801 -15.359209 2.189068 -4.826094 -45.645543 0.139335 24.482370 66.357508 22.566872 -16.683932 2.770392 -1.964001 -0.166809 0.025756 -0.087735
-128.316342 58.217786 105.519123 176.012480 -27.029154 -0.761305 2.590067 19.140460 3.300523 0.174986 2.289879 0.302119 0.316476 3.779027 0.514828 1.642690 16.542622 2.447037 -1.449796 10.779725 -1.788621 -1.985224 -15.782420 -2.807559 3.815708 -3.558772 -0.682678 16.469813 -18.815639 -20.086583 130.247771 -73.848683 -80.872250 16.469165 -16.289617 -46.678801 -7.129787 -3.515594 -4.448097 -2.595252 -14.683757 -3.295634 31.721258 -53.050884 -63.130423 6.455889 -4.636979 27.013917 3.139487 -47.917797 0.612376 -13.660653 67.983905 -18.085611 6.108814 21.243759 5.528389 -0.489199 -15.357041 2.184543 -4.776736 -45.645698 0.128112 24.577691 66.347154 22.619803 -16.750433 2.765165 -1.901564 -0.198352 0.026526 -0.100178
-128.309645 58.219672 105.521554 176.030539 -27.028320 -0.778122 2.570316 19.137132 3.303132 0.174229 2.288605 0.300452 0.304138 3.775297 0.509298 1.643231 16.548597 2.452915 -1.418057 10.784688 -1.796969 -1.903931 -15.760665 -2.832702 3.826041 -3.554430 -0.688888 16.414794 -18.790141 -20.057685 130.382315 -73.813246 -80.975916 16.493803 -16.271952 -46.700341 -7.118651 -3.518216 -4.455889 -2.603024 -14.691801 -3.289875 31.734605 -53.010083 -63.151247 6.447014 -4.637883 27.031439 3.095295 -47.917267 0.666384 -13.663069 67.972838 -18.130655 6.108098 21.254227 5.563229 -0.494849 -15.361849 2.176329 -4.719781 -45.641555 0.135583 24.488903 66.357342 22.540043 -16.813157 2.754878 -1.886191 -0.157299 0.030502 -0.083043
-128.308770 58.221558 105.524060 176.041422 -27.025951 -0.755448 2.542809 19.133410 3.264580 0.178447 2.288107 0.302455 0.302404 3.772545 0.506800 1.620598 16.543276 2.439502 -1.383063 10.798288 -1.789527 -1.859006 -15.746449 -2.850421 3.841843 -3.543957 -0.682231 16.372941 -18.773109 -20.034885 130.396487 -73.777073 -81.005951 16.502575 -16.287983 -46.690565 -7.105406 -3.512580 -4.462201 -2.608981 -14.697312 -3.273675 31.737958 -52.969249 -63.167204 6.439315 -4.648175 27.050294 3.107140 -47.917666 0.647930 -13.631701 67.968678 -18.131492 6.104821 21.256029 5.592377 -0.498990 -15.359443 2.170207 -4.688911 -45.643461 0.100539 24.533230 66.350252 22.561109 -16.829139 2.761951 -1.844120 -0.188815 0.018067 -0.098505
-128.305180 58.224188 105.525755 176.067067 -27.031350 -0.754691 2.513641 19.134837 3.246136 0.179740 2.291665 0.305928 0.300793 3.768252 0.503019 1.609206 16.538262 2.428151 -1.362551 10.809806 -1.782069 -1.837215 -15.735762 -2.862576 3.841922 -3.538374 -0.677835 16.356965 -18.763673 -20.017506 130.343354 -73.741257 -80.980464 16.503425 -16.304524 -46.683027 -7.104447 -3.512463 -4.472580 -2.650016 -14.732275 -3.263282 31.744787 -52.902043 -63.156583 6.418905 -4.662518 27.083244 3.089624 -47.910565 0.649502 -13.623981 67.964897 -18.143760 6.103986 21.260532 5.607327 -0.499743 -15.361812 2.167048 -4.650428 -45.634404 0.079343 24.515720 66.348779 22.536426 -16.860270 2.762595 -1.816724 -0.188086 0.005220 -0.092943
-128.299028 58.226767 105.527899 176.088189 -27.035184 -0.767225 2.497032 19.123032 3.239688 0.177668 2.299656 0.310388 0.301060 3.773849 0.506986 1.599815 16.530020 2.415448 -1.351586 10.818786 -1.781107 -1.835863 -15.727591 -2.865774 3.834241 -3.536914 -0.674638 16.343759 -18.751175 -20.000157 130.196888 -73.660801 -80.896328 16.462653 -16.361291 -46.650037 -7.134399 -3.522804 -4.499650 -2.630007 -14.722342 -3.226923 31.768755 -52.866662 -63.201742 6.395007 -4.665741 27.115569 3.057656 -47.905700 0.679630 -13.623096 67.959865 -18.165611 6.115526 21.261952 5.610304 -0.490339 -15.362909 2.174639 -4.590956 -45.622943 0.077819 24.426256 66.353579 22.455604 -16.928046 2.753713 -1.800688 -0.153983 0.010730 -0.078290
-128.293747 58.228514 105.531435 176.100106 -27.028198 -0.770966 2.487081 19.109473 3.231800 0.177080 2.289627 0.303559 0.299215 3.779630 0.512777 1.596831 16.533192 2.412583 -1.351628 10.820815 -1.784832 -1.849419 -15.720037 -2.864630 3.821204 -3.542992 -0.673501 16.270680 -18.739099 -19.984279 130.363730 -73.637976 -81.009540 16.480380 -16.354152 -46.655417 -7.144302 -3.526984 -4.510746 -2.625206 -14.720954 -3.211341 31.799119 -52.830745 -63.251369 6.370284 -4.664878 27.143835 3.044873 -47.911100 0.702054 -13.559061 67.955685 -18.132586 6.096381 21.273163 5.626493 -0.486154 -15.366930 2.176916 -4.544059 -45.624296 0.076309 24.378783 66.355241 22.404535 -16.972619 2.746756 -1.776237 -0.141929 0.018344 -0.074344
-128.288517 58.230929 105.533247 176.117645 -27.030128 -0.776187 2.471887 19.106834 3.222737 0.176134 2.288223 0.302774 0.298546 3.777911 0.512203 1.597903 16.538578 2.417714 -1.363248 10.817176 -1.794787 -1.877294 -15.715150 -2.862025 3.807502 -3.556711 -0.680023 16.252323 -18.730660 -19.977146 130.405529 -73.622839 -81.042985 16.494079 -16.355218 -46.659634 -7.156823 -3.539161 -4.525473 -2.633817 -14.737879 -3.205946 31.801745 -52.795306 -63.237469 6.380464 -4.667590 27.142693 3.023757 -47.903644 0.741694 -13.435879 67.961407 -18.059797 6.021716 21.267167 5.634157 -0.469315 -15.358204 2.188398 -4.513960 -45.618520 0.074464 24.357672 66.355911 22.373877 -17.004972 2.748204 -1.749428 -0.144613 0.016959 -0.074051
-128.283362 58.233415 105.534273 176.145601 -27.033452 -0.785125 2.445734 19.108028 3.214466 0.175282 2.287084 0.302110 0.299232 3.772132 0.507383 1.590901 16.534149 2.412251 -1.390341 10.817792 -1.802520 -1.900221 -15.703781 -2.857672 3.809703 -3.551487 -0.671318 16.239535 -18.731966 -19.984667 130.369417 -73.541393 -81.016744 16.416980 -16.395520 -46.657026 -7.161816 -3.539198 -4.528196 -2.625835 -14.727252 -3.193646 31.805987 -52.787053 -63.241230 6.438906 -4.690027 27.115518 3.001019 -47.896589 0.751463 -13.388290 67.965995 -18.029556 6.010303 21.251845 5.640594 -0.472457 -15.347199 2.192361 -4.494899 -45.611939 0.069318 24.306548 66.360717 22.326497 -17.035862 2.743449 -1.741748 -0.130065 0.015681 -0.065681
-128.286085 58.235174 105.535193 176.214163 -27.028639 -0.765119 2.366471 19.105559 3.158822 0.174974 2.286734 0.301879 0.294883 3.766934 0.501267 1.581021 16.531046 2.404530 -1.389277 10.824201 -1.799309 -1.957682 -15.700540 -2.864371 3.819324 -3.549501 -0.665548 16.240233 -18.739335 -20.000187 130.381326 -73.542142 -81.026894 16.409689 -16.400591 -46.660553 -7.160455 -3.544006 -4.529510 -2.629723 -14.727469 -3.184560 31.838680 -52.753100 -63.267745 6.422009 -4.691101 27.131152 2.995967 -47.897133 0.681303 -13.332386 67.975310 -17.983874 5.962852 21.239543 5.621733 -0.445467 -15.336677 2.204357 -4.485202 -45.617547 -0.000800 24.294448 66.360359 22.308495 -17.071673 2.738307 -1.737006 -0.112500 0.015414 -0.057205
